<?xml version="1.0" standalone="no"?>
<!DOCTYPE svg PUBLIC "-//W3C//DTD SVG 20010904//EN"
 "http://www.w3.org/TR/2001/REC-SVG-20010904/DTD/svg10.dtd">
<svg version="1.0" xmlns="http://www.w3.org/2000/svg"
 width="1000.000000pt" height="1000.000000pt" viewBox="0 0 1000.000000 1000.000000"
 preserveAspectRatio="xMidYMid meet">

<g transform="translate(0.000000,1000.000000) scale(0.100000,-0.100000)"
fill="#000000" stroke="none">
<path d="M3570 7896 l0 -56 49 0 c26 0 88 -7 137 -15 402 -70 624 -278 683
-640 30 -184 34 -294 40 -1135 l7 -875 2 745 c3 1122 -13 1318 -126 1535 -48
92 -172 218 -265 270 -118 65 -345 125 -474 125 l-43 0 0 45 0 45 1538 0
c1529 0 1798 -5 2037 -35 580 -75 1078 -278 1495 -611 118 -94 331 -309 428
-432 377 -475 609 -1058 677 -1697 20 -185 19 -563 0 -751 -40 -375 -137 -717
-295 -1039 -379 -772 -983 -1146 -1990 -1235 -69 -6 -289 -13 -490 -15 l-365
-5 120 19 c361 58 647 144 838 252 285 161 560 454 768 814 190 332 316 722
376 1171 21 163 25 682 5 849 -94 801 -398 1461 -893 1940 -358 346 -761 545
-1247 614 -217 31 -404 41 -797 41 l-366 0 4 -2342 c3 -1778 6 -2365 16 -2433
14 -107 47 -250 62 -273 9 -15 10 -14 4 3 -14 42 -44 194 -56 280 -10 69 -13
640 -16 2424 l-4 2333 453 -5 c643 -8 870 -39 1199 -168 855 -333 1470 -1219
1620 -2334 29 -216 36 -598 15 -815 -58 -608 -245 -1123 -561 -1545 -241 -323
-488 -522 -792 -640 -184 -71 -531 -148 -793 -175 -97 -11 -120 -15 -109 -23
10 -7 879 12 999 23 965 82 1540 409 1938 1101 199 346 330 779 373 1233 17
188 6 652 -20 826 -87 582 -288 1080 -606 1502 -451 599 -1061 967 -1820 1098
-319 54 -260 53 -2072 57 l-1683 4 0 -55z"/>
<path d="M3067 7893 c-3 -5 -363 -933 -802 -2063 -854 -2200 -917 -2362 -1020
-2600 -181 -418 -348 -686 -539 -868 -139 -132 -272 -202 -456 -241 l-95 -20
910 0 910 0 -101 24 c-258 59 -410 171 -514 377 -57 114 -74 204 -67 357 10
208 52 363 210 761 55 140 151 388 212 550 l111 295 986 3 986 2 30 -72 c186
-449 517 -1278 537 -1343 98 -320 63 -547 -111 -719 -116 -115 -236 -167 -489
-210 l-140 -24 1364 -1 c750 -1 1362 1 1360 3 -2 2 -53 11 -114 21 -215 33
-335 72 -452 147 -164 106 -276 257 -432 579 -105 216 -84 167 -1166 2782
l-939 2267 -87 0 c-48 0 -90 -3 -92 -7z m212 -2134 l488 -1204 -473 -3 c-260
-1 -688 -1 -952 0 l-480 3 461 1207 c254 664 463 1205 465 1204 2 -2 223 -545
491 -1207z"/>
</g>
</svg>
