<?xml version="1.0" standalone="no"?>
<!DOCTYPE svg PUBLIC "-//W3C//DTD SVG 20010904//EN"
 "http://www.w3.org/TR/2001/REC-SVG-20010904/DTD/svg10.dtd">
<svg version="1.0" xmlns="http://www.w3.org/2000/svg"
 width="1000.000000pt" height="1000.000000pt" viewBox="0 0 1000.000000 1000.000000"
 preserveAspectRatio="xMidYMid meet">

<g transform="translate(0.000000,1000.000000) scale(0.100000,-0.100000)"
fill="#000000" stroke="none">
<path d="M3079 7923 c-43 -116 -1617 -4167 -1671 -4303 -282 -708 -438 -986
-690 -1226 -143 -136 -301 -210 -493 -231 l-70 -8 -3 -52 -3 -53 976 0 976 0
-3 52 -3 52 -81 12 c-155 22 -305 85 -401 169 -72 63 -147 179 -179 278 -24
70 -28 99 -28 202 -1 189 55 402 196 755 39 96 128 326 198 510 l128 335 947
0 948 0 118 -290 c305 -748 431 -1068 454 -1160 69 -267 30 -444 -133 -596
-124 -116 -274 -173 -526 -201 l-106 -11 0 -54 0 -53 1420 0 1420 0 0 25 c0
14 3 25 8 25 4 1 219 5 477 10 618 12 861 36 1170 115 427 110 739 284 1006
562 607 633 856 1704 638 2748 -134 643 -472 1250 -924 1658 -404 365 -867
589 -1427 691 -332 61 -268 59 -2105 63 l-1683 4 0 -56 0 -55 43 0 c132 -1
311 -45 445 -111 169 -83 281 -211 343 -391 67 -198 81 -465 77 -1492 l-3
-768 -594 1436 -595 1436 -128 0 -128 0 -11 -27z m279 -30 c11 -27 452 -1092
980 -2368 528 -1276 990 -2387 1027 -2469 146 -330 249 -506 364 -629 146
-154 300 -222 602 -264 l129 -18 0 -42 0 -43 -1410 0 -1410 0 0 45 c0 44 1 45
33 45 54 0 268 38 342 61 110 34 180 74 261 151 182 173 210 386 94 721 -21
61 -151 389 -289 727 l-250 615 -956 0 -957 0 -123 -325 c-67 -179 -161 -422
-208 -540 -213 -536 -245 -798 -126 -1040 33 -67 59 -102 123 -165 49 -49 105
-93 142 -112 70 -37 212 -80 299 -91 l60 -7 3 -42 3 -43 -966 0 -966 0 3 43
c3 37 6 42 28 44 132 13 267 52 359 104 199 112 393 341 560 660 141 270 195
405 1186 2959 439 1130 799 2058 802 2063 2 4 57 7 122 7 l119 0 20 -47z
m2977 -93 c514 -34 872 -145 1221 -378 627 -419 1061 -1161 1194 -2039 58
-383 52 -839 -16 -1213 -149 -825 -623 -1543 -1195 -1815 -229 -108 -637 -204
-981 -231 -85 -7 -88 -6 -88 15 0 17 -6 21 -29 21 -57 0 -317 49 -386 73 -153
52 -190 82 -330 262 -133 170 -181 301 -216 585 -9 70 -13 710 -16 2413 l-4
2317 343 0 c189 0 415 -5 503 -10z"/>
<path d="M2420 5733 c-232 -608 -425 -1115 -428 -1125 -4 -17 27 -18 882 -18
487 0 886 3 886 8 0 13 -905 2242 -911 2242 -3 0 -196 -498 -429 -1107z m878
-15 c243 -601 442 -1099 442 -1105 0 -10 -180 -13 -864 -13 -476 0 -867 3
-869 8 -4 9 834 2202 842 2202 4 0 205 -492 449 -1092z"/>
</g>
</svg>
