<svg
          width="28"
          height="28"
          fill="none"
          xmlns="http://www.w3.org/2000/svg"
        >
          <g clip-path="url(#Asscher_svg__a)">
            <path
              d="M20.936 9.896 27 6.32M1 21.54l5.99-3.473M1 21.54 6.479 27M1 21.54V6.237m16.937 14.764L21.475 27m0 0 5.47-5.45M21.474 27H6.479M6.19 1.074l3.603 5.971m0 0L7.008 9.849v8.218l2.943 2.934h8.051l2.934-2.934M9.794 7.045h8.292l2.85 2.841v8.181M9.933 21.001 6.479 27M21.633 1l-3.566 6.036M21.633 1l5.311 5.302V21.55M21.633 1H6.19L1 6.237m19.936 11.83 6.008 3.482M1 6.237l6.082 3.668M19.21 5.123l3.64 3.621v10.428l-3.742 3.733H8.847l-3.752-3.733V8.698l3.556-3.575H19.21Zm1.161-1.95 4.438 4.43v12.73l-4.568 4.56H7.714l-4.578-4.57V7.538l4.336-4.364H20.37Z"
              stroke="#151542"
              stroke-width="0.5"
            ></path>
          </g>
          <defs>
            <clipPath id="Asscher_svg__a">
              <path fill="#fff" d="M0 0h28v28H0z"></path>
            </clipPath>
          </defs>
        </svg>