<svg
          width="28"
          height="28"
          fill="none"
          xmlns="http://www.w3.org/2000/svg"
        >
          <g clip-path="url(#Cushion_svg__a)">
            <path
              d="m7.917 4.92.056 4.431m-.056-4.43 6.231 2.855M7.918 4.92l6.128-3.875 6.528 4.431M7.917 4.921l-.99-2.753m.99 2.753-4.13-.612.973 4.236m3.213.806L6.74 13.764m1.232-4.412 6.175-1.576M7.973 9.35 4.76 8.546m1.981 5.219 1.13 4.718m-1.13-4.718L4.76 8.545m1.981 5.219-2.444 4.903m3.574-.185-3.574.185m3.574-.185-.565 3.995m.565-3.995 5.916 1.742m-9.49-1.557-2.26 1.223m2.26-1.223-3.24-4.903L4.76 8.545m-.463 10.122-.51 5.042 3.519-1.232m13.018.49 1.139 2.772m-1.139-2.771L13.944 27l-6.638-4.523m13.018.49-6.537-2.743m6.537 2.744-.407-4.421m.407 4.42 3.981.742M7.306 22.477l6.481-2.253m-6.481 2.253-1.148 3.086m7.63-5.339 6.129-1.677m4.509 5.005-1.148-4.208m0 0-3.361-.797m3.36.797 2.649 1.473m-2.648-1.473 3.703-5.58-3.342-4.542m-.361 10.122-2.14-5.58m2.5-4.542-2.5 4.542m2.5-4.542-3.573.306m3.574-.306.555-5.043-3.62 1.298m3.065 3.745 2.481-1.26m-4.981 5.802-1.222 4.783m1.222-4.783-1.074-4.236m0 0 .51-4.051m-.51 4.05-5.917-1.751m6.426-2.299-6.426 2.299m6.426-2.299 1.287-3.096M4.76 8.545l-2.435-1.28M14.037 1C12.611 1 6.491 1 3.778 4.263c-2.713 3.262-2.777 9.463-2.777 9.463s-.12 6.489 2.777 9.946c2.898 3.458 8.685 3.282 10.167 3.282 1.481 0 7.601 0 10.36-3.29 2.76-3.292 2.695-5.896 2.695-9.9 0-4.005-.176-6.489-2.778-9.585C21.62 1.083 16.342 1 14.037 1Z"
              stroke="#151542"
              stroke-width="0.5"
            ></path>
          </g>
          <defs>
            <clipPath id="Cushion_svg__a">
              <path fill="#fff" d="M0 0h28v28H0z"></path>
            </clipPath>
          </defs>
        </svg>