<svg
          width="28"
          height="28"
          fill="none"
          xmlns="http://www.w3.org/2000/svg"
        >
          <path
            d="m24 4.39-3.928 2.767M21.354 1l-2.309 4.884M21.354 1H6.656m14.698 0L24 4.39v19.22L21.354 27M19.045 5.884l1.027 1.272v3.435m-1.027-4.707H8.964m13.727 4.708V5.346l-2.11-2.675H7.428L5.31 5.346v5.246M4.001 4.389l3.936 2.768m0 0 1.027-1.273M7.937 7.157v3.435M6.656 1l2.308 4.884M6.656 1 4 4.39v19.22L6.656 27m0-16.408V6.284l1.59-1.895h11.518l1.59 1.895v15.432l-1.59 1.895H8.245l-1.59-1.895V10.592M24 23.61l-3.927-2.776m0 0-1.027 1.281m1.027-1.281V10.593M21.354 27l-2.309-4.884M21.354 27H6.656m12.39-4.884H8.963m13.727-11.523v12.052l-2.11 2.675H7.428L5.31 22.645V10.593M4.001 23.61l3.936-2.776m0 0 1.027 1.281m-1.027-1.281V10.593M6.656 27l2.308-4.884"
            stroke="#151542"
            stroke-width="0.5"
          ></path>
        </svg>