<svg
          width="28"
          height="28"
          fill="none"
          xmlns="http://www.w3.org/2000/svg"
        >
          <path
            d="M13.986 5.164v3.563M11.42 20.483l2.492-.547m-2.492.547-5.122.056.363-4.472.204-3.202-2.835-1.93m7.39 9.548-1.877 2.71m4.369-3.257h.148m-.149 0-3.56-2.19-3.253-4.63-1.46-4.185 8.367-2.246-4.806-4.12-3.58 3.675m8.441 13.696 2.492.547m-2.492-.547 3.784-2.116 3.03-4.704 1.46-4.185-8.367-2.246 4.806-4.12 3.588 3.675m-5.81 14.243 4.927.242-.167-4.658-.205-3.202 2.836-1.93m-7.39 9.548 1.598 2.896m3.18-6.811 2.519 1.512m.093-7.145-1.46-2.004-.12-2.69m1.58 4.694 2.695 1.058m-2.695-1.058 1.57 3.944-7.668 3.09-1.441 2.366-2.38 5.104h-.074l-2.38-5.104-1.292-2.737-7.808-2.72 1.561-3.943m19.912 0 2.472-4.148-4.053-.547m0 0 1.292-3.155M22.361 6.24 18.04 7.78l-4.016.975h-.074L9.933 7.78 5.62 6.24m0 0L4.318 3.085M5.62 6.24l-4.062.547 2.472 4.148M5.62 6.24l-.13 2.691-1.46 2.004m0 0-2.695 1.058m5.224 4.426-2.315 1.819m9.742 7.451S27 20.363 27 8.931c0-2.923-2.324-6.681-6.19-6.681-4.909 0-6.824 2.886-6.824 2.886S12.126 2.25 7.191 2.25C3.333 2.25 1 6.008 1 8.931c0 11.432 13.014 16.758 13.014 16.758h-.028Z"
            stroke="#151542"
            stroke-width="0.5"
            stroke-linejoin="round"
          ></path>
        </svg>