<svg
          width="28"
          height="28"
          fill="none"
          xmlns="http://www.w3.org/2000/svg"
        >
          <path
            d="m17.462 3.554-1.49 1.115m0 0 .245 3.482 3.18 2.488-1.525 3.213 1.407 3.426M15.972 4.67 14 5.523m1.973-.854-1.898-3.483h-.149L12.03 4.668 8.245 6.693l.357 3.947m7.37-5.971 3.782 2.024-.356 3.946 2.393 3.213-2.512 3.426m-3.352 5.98.41-3.761m-.41 3.761-1.928-.732m1.928.732 1.636 1.115m-1.225-4.877 2.94-2.218m-2.94 2.219 1.535-5.645L16.22 8.15l-2.22-2.627m2.339 13.974-2.339 3.029m5.28-5.248.548 3.984-3.9 1.996-1.852 3.557h-.149l-1.854-3.557M14 5.523l-1.973-.852-.246 3.482-3.179 2.486M14 5.524 11.78 8.15l-1.645 5.702 1.527 5.645m2.337 3.029-2.338-3.03M14 22.527l-1.927.732M8.602 10.64 6.21 13.852l2.52 3.425-.556 3.984 3.9 1.996M8.602 10.64l1.533 3.214-1.408 3.426 2.934 2.216m.41 3.762-.41-3.761m.41 3.761-1.636 1.115m.11-20.82 1.48 1.116M14.075 27a14.59 14.59 0 0 0 5.79-5.435A14.921 14.921 0 0 0 22 13.853C22 4.955 14.074 1 14.074 1h-.149S6 4.955 6 13.852a14.92 14.92 0 0 0 2.137 7.712 14.59 14.59 0 0 0 5.79 5.435l.147.001Z"
            stroke="#151542"
            stroke-width="0.5"
          ></path>
        </svg>