<svg
          width="28"
          height="28"
          fill="none"
          xmlns="http://www.w3.org/2000/svg"
        >
          <path
            d="m21.643 18.365-1.972-1.756m-3.04 6.38.714-3.584 2.327-2.795m-3.042 6.379-2.602-1.15 3.318-2.433.805-5.367 1.52 2.57m-3.04 6.38 1.373 2.526M16.63 22.99 14.028 27m2.602-4.011 3.73-.52-.688-5.86m0 0 2.32-2.359v-.138l-2.32-2.723.991-4.864L16.63 5.02m0 0L14.028 1m2.602 4.02.247 4.16 2.795 2.211-1.52 2.72-1.274-4.931-2.85-2.348L16.63 5.02Zm0 0 1.723-2.107m3.372 7.586-2.052.891M6.284 17.938l2.09-1.328m0 0 2.501 2.73m-2.501-2.73 1.52-2.572.981 5.302m-2.501-2.73-.807 5.655 3.85.724m-3.043-6.38-2.32-2.358v-.138l2.32-2.723-.989-4.984 4.028-1.385L14.018 1m-2.602 21.989-.54-3.649m.54 3.649 2.602-1.152-3.143-2.497m.541 3.649-1.548 2.423m1.548-2.423L14.018 27M6.311 10.229l2.062 1.162m0 0 2.795-2.211M8.373 11.39l1.521 2.72 1.274-4.931m.248-4.16-.248 4.16m.248-4.16 2.602 1.812-2.85 2.348m.248-4.16L9.683 2.876M6 14.185C6 6.051 9.583 1 14 1c4.416 0 8 5.042 8 13.176C22 22.31 18.416 27 14 27c-4.417 0-8-4.643-8-12.815Z"
            stroke="#151542"
            stroke-width="0.5"
          ></path>
        </svg>