<svg
          width="28"
          height="28"
          fill="none"
          xmlns="http://www.w3.org/2000/svg"
        >
          <path
            d="M11.104 5.02 6.01 4.289l1.145 4.956m3.949-4.223-.536 3.119m.536-3.12 2.84-3.936m-6.79 8.16 2.196 2.943-2.103 2.805m-.092-5.748L4.074 11.78l3.173 3.212m-.092-5.748 3.413-1.104m-3.321 6.852-.414 4.93 4.649 1.272 2.537-1.466-3.423-2.35m-3.35-2.386 3.35 2.386m-3.35-2.386-2.24 1.356m5.59 1.03.886 3.817m-.886-3.817L9.35 12.189l1.218-4.049m0 0 3.377-1.615m-6.79 2.72L4.193 8.04m7.289 13.156-1.486 2.647m1.486-2.647 2.537 5.627m-.074-20.297L11.103 5.02 9.524 2.004m4.421 4.52 3.385 1.617 1.338 3.797m-4.723-5.413 2.85-1.504 1.513-3.036m-1.513 3.036 5.065-.706-1.116 4.93m0 0-2.076 2.694m2.076-2.694 3.026-.853m-5.102 3.546 2.048 3.055m-2.048-3.055-1.152 5.44-1.034 3.817m4.234-6.202.36 5.014-4.594 1.188m4.234-6.202 2.279 1.253m-6.513 4.95-2.537-1.468 3.57-2.35 3.2-2.384 3.165-3.214-3.138-2.536-3.413-1.103-.536-3.12L13.944 1m2.538 20.195 1.227 2.896m-1.227-2.896-2.537 5.627m.036.178S24 21.326 24 10.127C24 1.327 14.627 1 13.98 1 13.337 1 4 1.066 4 10.127 3.96 21.334 13.98 27 13.98 27Z"
            stroke="#151542"
            stroke-width="0.5"
          ></path>
        </svg>