<svg
          width="28"
          height="28"
          fill="none"
          xmlns="http://www.w3.org/2000/svg"
        >
          <g clip-path="url(#Princess_svg__a)">
            <path
              d="M4.101 7.537v-.25h-.25v.25h.25Zm3.472 0v.25h.25v-.25h-.25Zm0-3.556v-.25h-.25v.25h.25Zm12.74 0h.25v-.25h-.25v.25Zm0 3.715h-.25v.25h.25v-.25Zm3.706 0h.25v-.25h-.25v.25Zm0 12.646v.25h.25v-.25h-.25ZM.999 1V.75H.75V1H1Zm26 0h.25V.75H27V1Zm0 26v.25h.25V27H27ZM1 27H.75v.25H1V27ZM20.24 3.943l.068.241a.249.249 0 0 0 .032-.011l-.1-.23ZM7.612 7.5l-.067-.24a.25.25 0 0 0-.174.174l.241.066ZM1.213 27l-.229-.1a.25.25 0 0 0 .344.322L1.213 27ZM23.824 7.806l-.227-.105a.256.256 0 0 0-.014.039l.241.066ZM1.102 1.221l.096-.23a.25.25 0 0 0-.322.338l.226-.108Zm6.399 2.675-.097.23a.25.25 0 0 0 .026.01l.07-.24Zm12.813 3.79.24-.068a.25.25 0 0 0-.17-.171l-.07.24Zm3.594 12.694-.24.068a.244.244 0 0 0 .014.038l.226-.106ZM4.101 7.5l.242-.064a.25.25 0 0 0-.016-.044L4.1 7.5Zm.25 12.842V7.537h-.5v12.805h.5Zm-.25-12.555h3.472v-.5H4.1v.5Zm3.722-.25V3.98h-.5v3.556h.5Zm-.25-3.306h12.74v-.5H7.574v.5Zm12.49-.25v3.715h.5V3.98h-.5Zm.25 3.965h3.706v-.5h-3.705v.5Zm3.456-.25v12.646h.5V7.696h-.5Zm.25 12.396h-3.667v.5h3.667v-.5Zm-3.917.25v3.409h.5v-3.409h-.5Zm.25 3.159H7.5v.5h12.852v-.5Zm-12.602.25v-3.409h-.5v3.409h.5Zm-.25-3.659H4.1v.5H7.5v-.5ZM1 1.25h26v-.5H1v.5ZM26.75 1v26h.5V1h-.5ZM27 26.75H1v.5h26v-.5ZM1.25 27V1h-.5v26h.5ZM26.9.77l-6.76 2.944.2.459 6.76-2.944-.2-.458Zm-6.728 2.933L7.545 7.259l.135.482 12.628-3.557-.136-.481Zm-12.8 3.731L3.86 20.276l.482.132L7.854 7.566l-.483-.132Zm-3.5 12.809L.984 26.9l.459.198 2.887-6.657-.458-.2Zm-2.544 6.98 6.287-3.25-.23-.445-6.286 3.25.23.444Zm6.236-3.23 12.852-3.41-.129-.482-12.851 3.408.128.483Zm13.028-3.584 3.473-12.536-.482-.133-3.472 12.535.481.134Zm3.459-12.497 3.175-6.806-.453-.212-3.175 6.807.453.211ZM1.006 1.452l6.398 2.675.193-.462L1.198.991l-.192.46ZM7.43 4.136l12.813 3.79.142-.48-12.813-3.79-.142.48Zm12.643 3.618 3.595 12.694.48-.136-3.594-12.694-.48.136Zm3.609 12.732 3.091 6.62.453-.212-3.091-6.62-.453.212Zm3.428 6.29-6.649-3.25-.22.45 6.65 3.249.219-.45Zm-6.694-3.267L7.564 20.1l-.128.484 12.851 3.408.129-.483Zm-12.674-3.23-3.4-12.843-.483.128 3.4 12.842.483-.128ZM4.327 7.391l-3-6.279-.45.216 2.998 6.279.452-.216Z"
              fill="#151542"
            ></path>
          </g>
          <defs>
            <clipPath id="Princess_svg__a">
              <path fill="#fff" d="M0 0h28v28H0z"></path>
            </clipPath>
          </defs>
        </svg>