<svg
          width="28"
          height="28"
          fill="none"
          xmlns="http://www.w3.org/2000/svg"
        >
          <g clip-path="url(#Radiant_svg__a)">
            <path
              d="m24.196 21.354-4.188-1.364 1.346 4.206m2.842-2.843V6.657m0 14.698-2.842 2.842m0 0L22.868 27m-1.514-2.804L14 20.963l-7.344 3.233m14.698 0H6.656M27 22.868l-2.804-1.513L21.039 14l3.157-7.344M27 22.868V5.14m0 17.727L22.868 27m1.328-20.344L27 5.141m-2.804 1.515-2.843-2.845H6.656m17.54 2.845L20.008 8.02l1.346-4.206M27 5.14 22.868 1m0 26H5.14m1.515-2.804L5.14 27m1.515-2.804L3.81 21.353V6.657l2.845-2.845M5.14 27 1 22.868M6.656 3.81 14 7.045l7.355-3.232L22.868 1M6.656 3.811 5.14 1M3.813 21.354 8 19.99l-1.345 4.206M1 22.868l2.813-1.513L6.96 14 3.813 6.656M1 22.868V5.14L5.14 1 22.869 1M3.813 6.656 1 5.14m2.813 1.516L8 8.02 6.655 3.814M14 7.11l5.924.985.91 5.905-.91 5.915L14 20.9l-5.924-.985-.9-5.915.9-5.905L14 7.11Z"
              stroke="#151542"
              stroke-width="0.5"
            ></path>
          </g>
          <defs>
            <clipPath id="Radiant_svg__a">
              <path fill="#fff" d="M0 0h28v28H0z"></path>
            </clipPath>
          </defs>
        </svg>