<svg
          width="28"
          height="28"
          fill="none"
          xmlns="http://www.w3.org/2000/svg"
        >
          <g clip-path="url(#Round_svg__a)">
            <path
              d="m10.563 5.825 3.363-4.72 3.418 4.683m-6.781.037L4.83 4.924l.957 5.722m4.775-4.821L9.439 9.429l-1.896 4.645-1.718 3.354m4.738-11.603 3.353 1.719 4.655 1.904 3.595 1.115M10.563 5.825 9.01 2.137m8.333 3.65 5.723-.956-.901 5.732m-4.822-4.775L14.01 7.544l-4.635 1.95-3.586 1.152m11.556-4.858 1.162 3.595 1.941 4.626 1.756 3.335M17.344 5.788l1.524-3.726m3.298 8.5 4.728 3.373-4.691 3.41m-.037-6.782-1.719 3.353-1.895 4.655-1.115 3.604m4.766-4.83.966 5.722-5.732-.892m4.766-4.83-3.586 1.16-4.626 1.942-3.335 1.756m6.781-.028-3.372 4.72-3.41-4.692m6.782-.028-3.354-1.728-4.654-1.895-3.604-1.124m11.612 4.747 1.552 3.697m-8.333-3.669-5.723.966.892-5.741m4.83 4.775-1.16-3.586-1.952-4.636-1.755-3.335m4.868 11.557-1.533 3.744m-3.298-8.519-4.72-3.363 4.683-3.419m.037 6.782-3.688 1.56m3.65-8.342L2.09 9.141m23.782-.13-3.697 1.552m3.762 8.305-3.734-1.514m-3.632 1.17 1.857-4.561-1.904-4.534-4.561-1.867-4.534 1.905-1.867 4.56 1.914 4.544 4.561 1.858 4.534-1.905Zm.337-16.558c6.647 2.71 9.837 10.296 7.126 16.942-2.711 6.647-10.296 9.837-16.943 7.126-6.646-2.71-9.836-10.296-7.125-16.943 2.71-6.646 10.296-9.836 16.942-7.125Z"
              stroke="#151542"
              stroke-width="0.5"
            ></path>
          </g>
          <defs>
            <clipPath id="Round_svg__a">
              <path fill="#fff" d="M0 0h28v28H0z"></path>
            </clipPath>
          </defs>
        </svg>